<svg width="81" height="80" viewBox="0 0 81 80" fill="none" xmlns="http://www.w3.org/2000/svg">
    <path d="M38.0047 47.6955C37.2463 46.0389 36.6978 43.5857 36.4401 40.6971C36.2623 38.7044 36.2619 38.7036 35.4213 38.546C34.5496 38.3824 33.7688 37.6958 33.179 36.5743C32.25 34.8079 33.2674 29.694 35.5776 24.5195C37.7826 19.5799 38.0627 17.3905 36.6346 16.256C36.0041 15.755 35.7059 15.7098 33.8464 15.833C32.7013 15.9089 31.0617 16.2192 30.2027 16.5226C29.3438 16.8259 28.3483 17.0405 27.9904 16.9993C27.4186 16.9336 27.3483 16.8141 27.4098 16.0136C27.4483 15.5125 27.7997 14.4585 28.1906 13.6712C29.1643 11.7102 30.3096 11.1243 32.2987 11.5694C34.385 12.0363 38.1788 13.9876 39.5445 15.2962C40.6187 16.3255 40.7434 16.5656 40.7434 17.6063C40.7434 18.535 40.4815 19.209 39.4362 20.9693C34.9926 28.4537 34.1952 32.7164 36.7171 35.5078C37.867 36.7806 39.2966 37.2374 40.7587 36.7993C43.5913 35.9507 43.9425 32.4101 41.1941 32.4101C40.3896 32.4101 39.5744 33.1229 38.8685 34.4435C38.4094 35.3024 37.7054 35.5144 37.1517 34.9607C36.6593 34.4683 36.7762 32.3867 37.3491 31.4475C38.6821 29.2613 43.2548 30.1583 44.1187 32.7754C44.8197 34.8996 42.1047 37.9715 38.8278 38.7619L38.0832 38.9414L38.2654 42.8984C38.3656 45.0746 38.5479 47.3204 38.6701 47.8893C38.9967 49.4085 38.7567 49.3383 38.0047 47.6955ZM29.8569 14.8017C30.4815 14.2365 30.4638 13.6708 29.8215 13.6708C29.3348 13.6708 28.7713 14.36 28.7713 14.955C28.7713 15.3678 29.3165 15.2908 29.8569 14.8017Z" fill="#28802F"/>
    <path d="M34.3603 68.3273C31.3368 67.8726 28.7643 66.8042 27.2458 65.3724C25.6241 63.8433 25.6411 63.9569 25.643 54.742C25.6448 46.8895 25.6778 46.2854 26.1446 45.5771C26.7816 44.6109 28.4226 43.5077 30.2272 42.8325C31.6146 42.3134 35.1833 41.6033 35.3807 41.807C35.436 41.8641 35.5221 42.3092 35.5714 42.796L35.6611 43.6811L33.8393 44.1151C27.7513 45.5655 26.9445 49.0781 32.2777 50.9138C33.8514 51.4555 34.5781 51.5409 37.6132 51.5409C40.6398 51.5409 41.3761 51.4548 42.926 50.92C45.3122 50.0965 46.5664 48.9622 46.5664 47.6278C46.5664 46.8074 46.3974 46.498 45.5499 45.7653C44.5681 44.9166 42.4283 44.1137 40.1507 43.7396C39.2218 43.587 39.1747 43.5314 39.1747 42.5882V41.5971L40.5411 41.7116C42.7753 41.8989 45.9022 42.8347 47.1933 43.7024C48.5487 44.6135 49.5855 45.987 49.5855 46.8717C49.5855 47.3627 49.77 47.4917 50.6915 47.6448C52.9676 48.023 54.2588 49.2246 54.9522 51.6102C55.5214 53.568 55.3234 56.6696 54.5238 58.3214C53.8203 59.7747 52.3758 60.7936 50.7615 60.9755C49.586 61.108 49.5856 61.1085 49.5856 62.1449C49.5856 66.408 42.0214 69.4797 34.3603 68.3273ZM51.7016 57.4054C52.6342 56.2842 52.5228 52.2386 51.5291 51.1406C51.2747 50.8594 50.7334 50.6294 50.3261 50.6294H49.5857V58.2423L50.4315 58.0789C50.8967 57.989 51.4682 57.6859 51.7016 57.4054Z" fill="#9AC926"/>
</svg>
