<?xml version="1.0" encoding="utf-8"?>
<svg viewBox="0 0 32 32" fill="none" xmlns="http://www.w3.org/2000/svg">
  <g id="ShellScripts" transform="matrix(1, 0, 0, 1, 0, -4.440892098500626e-16)">
    <g id="Vector">
      <path d="M26.6666 14.8953V9.33333H5.33329V25.3333H16.4327C16.3417 25.9412 16.2946 26.5634 16.2946 27.1967C16.2946 27.4665 16.3031 27.7344 16.32 28H5.33329C4.62605 28 3.94777 27.719 3.44767 27.219C2.94758 26.7189 2.66663 26.0406 2.66663 25.3333V6.66667C2.66663 5.18667 3.86663 4 5.33329 4H26.6666C27.3739 4 28.0521 4.28095 28.5522 4.78105C29.0523 5.28115 29.3333 5.95942 29.3333 6.66667V14.7306C29.1475 14.7224 28.9607 14.7183 28.773 14.7183C28.0551 14.7183 27.3514 14.7789 26.6666 14.8953Z" style="fill: rgb(202, 197, 218);"/>
      <path d="M9.68012 12L15.0268 17.3333L9.70678 22.6667H13.4801L17.8534 18.2933C18.3734 17.7733 18.3734 16.92 17.8534 16.4L13.4534 12H9.68012Z" style="fill: rgb(202, 197, 218);"/>
      <path d="M29.3333 25V28H26.3333C26.3333 27.2044 26.6493 26.4413 27.2119 25.8787C27.7745 25.3161 28.5376 25 29.3333 25ZM29.3333 21V23C28.6766 23 28.0265 23.1293 27.4198 23.3806C26.8132 23.6319 26.262 24.0002 25.7977 24.4645C25.3334 24.9288 24.9651 25.48 24.7139 26.0866C24.4626 26.6932 24.3333 27.3434 24.3333 28H22.3333C22.3333 26.1435 23.0707 24.363 24.3835 23.0503C25.6963 21.7375 27.4767 21 29.3333 21ZM29.3333 17V19C28.1514 19 26.981 19.2328 25.8891 19.6851C24.7972 20.1374 23.805 20.8003 22.9693 21.636C22.1336 22.4718 21.4706 23.4639 21.0183 24.5558C20.566 25.6478 20.3333 26.8181 20.3333 28H18.3333C18.3333 21.92 23.2633 17 29.3333 17Z" style="fill: rgb(202, 197, 218);"/>
    </g>
  </g>
</svg>
