<?xml version="1.0" encoding="utf-8"?>
<svg viewBox="0 0 24 24" fill="none" xmlns="http://www.w3.org/2000/svg">
  <path fill-rule="evenodd" clip-rule="evenodd" d="M4.97852 2.03955C3.87395 2.03955 2.97852 2.93498 2.97852 4.03955V19.957C2.97852 21.0616 3.87395 21.957 4.97852 21.957H19.0288C20.1334 21.957 21.0288 21.0616 21.0288 19.957V4.03955C21.0288 2.93498 20.1334 2.03955 19.0288 2.03955H4.97852ZM5.692 13.9921C5.51993 13.9921 5.3585 13.9805 5.2077 13.9573C5.05883 13.936 4.92253 13.908 4.7988 13.8732C4.677 13.8364 4.5697 13.7987 4.4769 13.7601L4.3986 12.9249C4.55133 12.9964 4.7321 13.0631 4.9409 13.125C5.1497 13.1849 5.37106 13.2149 5.605 13.2149C5.8312 13.2149 5.99166 13.1868 6.0864 13.1308C6.18306 13.0728 6.2314 12.9829 6.2314 12.8611V12.8408C6.2314 12.7596 6.20916 12.6938 6.1647 12.6436C6.12216 12.5914 6.04966 12.544 5.9472 12.5015C5.84666 12.457 5.71036 12.4096 5.5383 12.3594C5.27923 12.282 5.0627 12.196 4.8887 12.1013C4.71663 12.0065 4.58806 11.8886 4.503 11.7475C4.41793 11.6044 4.3754 11.4236 4.3754 11.2052V11.1675C4.3754 10.8311 4.48946 10.5739 4.7176 10.3961C4.94766 10.2182 5.28503 10.1293 5.7297 10.1293C5.9965 10.1293 6.22656 10.1525 6.4199 10.1989C6.61516 10.2453 6.78046 10.3004 6.9158 10.3642L6.9941 11.1414C6.84523 11.0698 6.67606 11.0099 6.4866 10.9616C6.29906 10.9113 6.098 10.8862 5.8834 10.8862C5.7326 10.8862 5.6137 10.8987 5.5267 10.9239C5.44163 10.949 5.3817 10.9857 5.3469 11.0341C5.3121 11.0805 5.2947 11.1375 5.2947 11.2052V11.2168C5.2947 11.2864 5.31403 11.3473 5.3527 11.3995C5.3933 11.4517 5.46483 11.5019 5.5673 11.5503C5.6717 11.5986 5.8196 11.6508 6.011 11.7069C6.26813 11.7823 6.4808 11.8635 6.649 11.9505C6.81913 12.0355 6.94576 12.1467 7.0289 12.284C7.11396 12.4193 7.1565 12.6001 7.1565 12.8263V12.8727C7.1565 13.2458 7.03566 13.5261 6.794 13.7137C6.55233 13.8993 6.185 13.9921 5.692 13.9921ZM8.58062 13.9138H7.67292V10.2076H8.58062V11.6402H9.87982V10.2076H10.7904V13.9138H9.87982V12.3971H8.58062V13.9138ZM11.4622 10.2076V13.9138H14.0577V13.1569H12.3496V12.3971H13.9881V11.6692H12.3496V10.9558H14.0316V10.2076H11.4622ZM14.6284 13.9138V10.2076H15.5361V13.1511H17.0818V13.9138H14.6284ZM17.5171 13.9138H19.9705V13.1511H18.4248V10.2076H17.5171V13.9138Z" style="fill: rgb(202, 197, 218); fill-rule: evenodd;" transform="matrix(0.9999999999999999, 0, 0, 0.9999999999999999, 0, 0)"/>
</svg>
