<?xml version="1.0" encoding="UTF-8"?>
<!DOCTYPE svg PUBLIC "-//W3C//DTD SVG 1.1//EN" "http://www.w3.org/Graphics/SVG/1.1/DTD/svg11.dtd">
<svg xmlns="http://www.w3.org/2000/svg" version="1.1" width="200px" height="200px" style="shape-rendering:geometricPrecision; text-rendering:geometricPrecision; image-rendering:optimizeQuality; fill-rule:evenodd; clip-rule:evenodd" xmlns:xlink="http://www.w3.org/1999/xlink">
<g><path style="opacity:0.991" fill="#13b4ca" d="M 98.5,60.5 C 98.7553,63.0163 99.5886,65.3496 101,67.5C 106.697,78.0006 112.53,88.3339 118.5,98.5C 126.923,113.679 135.09,129.013 143,144.5C 144.833,159.997 138,167.497 122.5,167C 117.255,166.09 113.422,163.256 111,158.5C 107.059,150.942 102.892,143.608 98.5,136.5C 98.5402,133.575 97.7068,130.909 96,128.5C 90.5977,119.418 85.5977,110.085 81,100.5C 80.2917,99.6195 79.4584,98.9528 78.5,98.5C 76.7505,94.6654 74.7505,90.9988 72.5,87.5C 72.6567,86.1266 72.49,84.7932 72,83.5C 66.6311,74.4379 61.6311,65.1046 57,55.5C 56.3333,51.8333 56.3333,48.1667 57,44.5C 58.9474,40.7238 61.4474,37.3904 64.5,34.5C 73.1132,30.7202 80.6132,32.3868 87,39.5C 90.6642,46.6457 94.4975,53.6457 98.5,60.5 Z"/></g>
<g><path style="opacity:0.991" fill="#e27400" d="M 139.5,41.5 C 140.422,46.4724 140.588,51.4724 140,56.5C 135,65.8333 130,75.1667 125,84.5C 124.51,85.7932 124.343,87.1266 124.5,88.5C 122.012,91.4658 120.012,94.7991 118.5,98.5C 112.53,88.3339 106.697,78.0006 101,67.5C 99.5886,65.3496 98.7553,63.0163 98.5,60.5C 102.738,53.3743 106.904,46.041 111,38.5C 117.951,31.9848 125.784,30.8181 134.5,35C 136.79,36.7772 138.457,38.9438 139.5,41.5 Z"/></g>
<g><path style="opacity:0.978" fill="#1573a0" d="M 64.5,34.5 C 61.4474,37.3904 58.9474,40.7238 57,44.5C 56.3333,48.1667 56.3333,51.8333 57,55.5C 61.6311,65.1046 66.6311,74.4379 72,83.5C 72.49,84.7932 72.6567,86.1266 72.5,87.5C 59.0821,111.484 45.9155,135.817 33,160.5C 24.5933,168.925 15.5933,169.592 6,162.5C 0.827729,155.27 0.161063,147.604 4,139.5C 22.0334,106.147 40.0334,72.8135 58,39.5C 59.7772,37.2101 61.9438,35.5434 64.5,34.5 Z"/></g>
<g><path style="opacity:0.977" fill="#fabb04" d="M 139.5,41.5 C 158.069,75.6289 176.569,109.962 195,144.5C 196.931,157.89 191.265,165.557 178,167.5C 169.869,167.042 164.203,163.042 161,155.5C 149.299,132.753 137.132,110.42 124.5,88.5C 124.343,87.1266 124.51,85.7932 125,84.5C 130,75.1667 135,65.8333 140,56.5C 140.588,51.4724 140.422,46.4724 139.5,41.5 Z"/></g>
<g><path style="opacity:0.969" fill="#e27400" d="M 78.5,98.5 C 79.4584,98.9528 80.2917,99.6195 81,100.5C 85.5977,110.085 90.5977,119.418 96,128.5C 97.7068,130.909 98.5402,133.575 98.5,136.5C 94.5062,142.481 91.0062,148.815 88,155.5C 82.1502,166.841 73.3169,170.008 61.5,165C 54.6632,159.828 52.1632,152.995 54,144.5C 61.994,129.024 70.1607,113.691 78.5,98.5 Z"/></g>
</svg>
